<svg width="1200" height="600" xmlns="http://www.w3.org/2000/svg"><rect width="1200" height="600" fill="#f9f9f9"></rect><text x="600" y="30" text-anchor="middle" font-size="20px" font-weight="bold">Mestinon/Pyridostigminbromid Wirkungskurve</text><g transform="translate(0, 550)" fill="none" font-size="10" font-family="sans-serif" text-anchor="middle"><path class="domain" stroke="currentColor" d="M50.5,6V0.5H1150.5V6"></path><g class="tick" opacity="1" transform="translate(93.66107655641459,0)"><line stroke="currentColor" y2="6"></line><text fill="currentColor" y="9" dy="0.71em" transform="rotate(-45)" text-anchor="end">19.06.2025</text></g><g class="tick" opacity="1" transform="translate(185.7380398767657,0)"><line stroke="currentColor" y2="6"></line><text fill="currentColor" y="9" dy="0.71em" transform="rotate(-45)" text-anchor="end">20.06.2025</text></g><g class="tick" opacity="1" transform="translate(277.81500319711677,0)"><line stroke="currentColor" y2="6"></line><text fill="currentColor" y="9" dy="0.71em" transform="rotate(-45)" text-anchor="end">21.06.2025</text></g><g class="tick" opacity="1" transform="translate(369.89196651746795,0)"><line stroke="currentColor" y2="6"></line><text fill="currentColor" y="9" dy="0.71em" transform="rotate(-45)" text-anchor="end">22.06.2025</text></g><g class="tick" opacity="1" transform="translate(461.968929837819,0)"><line stroke="currentColor" y2="6"></line><text fill="currentColor" y="9" dy="0.71em" transform="rotate(-45)" text-anchor="end">23.06.2025</text></g><g class="tick" opacity="1" transform="translate(554.0458931581701,0)"><line stroke="currentColor" y2="6"></line><text fill="currentColor" y="9" dy="0.71em" transform="rotate(-45)" text-anchor="end">24.06.2025</text></g><g class="tick" opacity="1" transform="translate(646.1228564785212,0)"><line stroke="currentColor" y2="6"></line><text fill="currentColor" y="9" dy="0.71em" transform="rotate(-45)" text-anchor="end">25.06.2025</text></g><g class="tick" opacity="1" transform="translate(738.1998197988723,0)"><line stroke="currentColor" y2="6"></line><text fill="currentColor" y="9" dy="0.71em" transform="rotate(-45)" text-anchor="end">26.06.2025</text></g><g class="tick" opacity="1" transform="translate(830.2767831192234,0)"><line stroke="currentColor" y2="6"></line><text fill="currentColor" y="9" dy="0.71em" transform="rotate(-45)" text-anchor="end">27.06.2025</text></g><g class="tick" opacity="1" transform="translate(922.3537464395745,0)"><line stroke="currentColor" y2="6"></line><text fill="currentColor" y="9" dy="0.71em" transform="rotate(-45)" text-anchor="end">28.06.2025</text></g><g class="tick" opacity="1" transform="translate(1014.4307097599255,0)"><line stroke="currentColor" y2="6"></line><text fill="currentColor" y="9" dy="0.71em" transform="rotate(-45)" text-anchor="end">29.06.2025</text></g><g class="tick" opacity="1" transform="translate(1106.5076730802766,0)"><line stroke="currentColor" y2="6"></line><text fill="currentColor" y="9" dy="0.71em" transform="rotate(-45)" text-anchor="end">30.06.2025</text></g></g><circle cx="100" cy="70" r="6" fill="#1a73e8"></circle><text x="120" y="75" font-size="14px">Mestinon Einnahme</text><circle cx="100" cy="95" r="6" fill="#e8731a"></circle><text x="120" y="100" font-size="14px">Doppeltsehen</text><circle cx="100" cy="120" r="6" fill="#e8731a"></circle><text x="120" y="125" font-size="14px">Doppeltsehen</text><circle cx="100" cy="145" r="6" fill="#1ae89b"></circle><text x="120" y="150" font-size="14px">Zeilenmix Laptop</text><circle cx="100" cy="170" r="6" fill="#9b1ae8"></circle><text x="120" y="175" font-size="14px">Lid linkes Auge</text><circle cx="100" cy="195" r="6" fill="#e8d81a"></circle><text x="120" y="200" font-size="14px">Muskelzucken</text><circle cx="100" cy="220" r="6" fill="#547b48"></circle><text x="120" y="225" font-size="14px">Darm</text><circle cx="100" cy="245" r="6" fill="#1a73e8"></circle><text x="120" y="250" font-size="14px">Sonstiges</text><circle cx="100" cy="270" r="6" fill="#e8731a"></circle><text x="120" y="275" font-size="14px">Doppeltsehen</text><circle cx="100" cy="295" r="6" fill="#e81a1a"></circle><text x="120" y="300" font-size="14px">Nebenwirkung</text><circle cx="100" cy="320" r="6" fill="#e81a1a"></circle><text x="120" y="325" font-size="14px">Nebenwirkung</text><circle cx="100" cy="345" r="6" fill="#9b1ae8"></circle><text x="120" y="350" font-size="14px">Hausarztnotdienst</text><circle cx="100" cy="370" r="6" fill="#e81a1a"></circle><text x="120" y="375" font-size="14px">Nebenwirkung</text><circle cx="100" cy="395" r="6" fill="#547b48"></circle><text x="120" y="400" font-size="14px">Aufstoßen</text><circle cx="100" cy="420" r="6" fill="#1a73e8"></circle><text x="120" y="425" font-size="14px">Blähungen</text><circle cx="100" cy="445" r="6" fill="#e81a1a"></circle><text x="120" y="450" font-size="14px">Nebenwirkung</text><circle cx="100" cy="470" r="6" fill="#e81a1a"></circle><text x="120" y="475" font-size="14px">Nebenwirkung</text><circle cx="100" cy="495" r="6" fill="#1ae89b"></circle><text x="120" y="500" font-size="14px">Speichelfluss</text><circle cx="100" cy="520" r="6" fill="#9b1ae8"></circle><text x="120" y="525" font-size="14px">Zeilemix Laptop</text><circle cx="100" cy="545" r="6" fill="#e8d81a"></circle><text x="120" y="550" font-size="14px">Nase läuft</text><circle cx="100" cy="570" r="6" fill="#e81a1a"></circle><text x="120" y="575" font-size="14px">Nebenwirkung</text><circle cx="100" cy="595" r="6" fill="#1a73e8"></circle><text x="120" y="600" font-size="14px">Doppensehen</text><circle cx="100" cy="620" r="6" fill="#e8731a"></circle><text x="120" y="625" font-size="14px">Vorlesen</text><circle cx="100" cy="645" r="6" fill="#e81a1a"></circle><text x="120" y="650" font-size="14px">Stuhlgang</text><circle cx="100" cy="670" r="6" fill="#e81a1a"></circle><text x="120" y="675" font-size="14px">Nebenwirkung</text><circle cx="100" cy="695" r="6" fill="#9b1ae8"></circle><text x="120" y="700" font-size="14px">Zeilenmix</text><circle cx="100" cy="720" r="6" fill="#e8731a"></circle><text x="120" y="725" font-size="14px">Doppeltsehen</text><circle cx="50" cy="100" r="6" fill="#1a73e8" stroke="#fff" stroke-width="2"></circle><circle cx="52.87740510376097" cy="115.92592592592592" r="6" fill="#e8731a" stroke="#fff" stroke-width="2"></circle><circle cx="52.87740510376097" cy="131.85185185185185" r="6" fill="#e8731a" stroke="#fff" stroke-width="2"></circle><circle cx="53.19711678195663" cy="147.77777777777777" r="6" fill="#1ae89b" stroke="#fff" stroke-width="2"></circle><circle cx="55.115386851130616" cy="147.77777777777777" r="6" fill="#1ae89b" stroke="#fff" stroke-width="2"></circle><circle cx="55.43509852932628" cy="163.7037037037037" r="6" fill="#9b1ae8" stroke="#fff" stroke-width="2"></circle><circle cx="55.75481020752194" cy="163.7037037037037" r="6" fill="#9b1ae8" stroke="#fff" stroke-width="2"></circle><circle cx="63.1081788060222" cy="115.92592592592592" r="6" fill="#e8731a" stroke="#fff" stroke-width="2"></circle><circle cx="63.1081788060222" cy="131.85185185185185" r="6" fill="#e8731a" stroke="#fff" stroke-width="2"></circle><circle cx="63.42789048421787" cy="100" r="6" fill="#1a73e8" stroke="#fff" stroke-width="2"></circle><circle cx="65.02644887519618" cy="179.62962962962962" r="6" fill="#e8d81a" stroke="#fff" stroke-width="2"></circle><circle cx="65.98558390978317" cy="195.55555555555554" r="6" fill="#547b48" stroke="#fff" stroke-width="2"></circle><circle cx="65.02644887519618" cy="147.77777777777777" r="6" fill="#1ae89b" stroke="#fff" stroke-width="2"></circle><circle cx="67.90385397895716" cy="211.48148148148147" r="6" fill="#1a73e8" stroke="#fff" stroke-width="2"></circle><circle cx="71.42068243910947" cy="147.77777777777777" r="6" fill="#1ae89b" stroke="#fff" stroke-width="2"></circle><circle cx="74.6177992210661" cy="147.77777777777777" r="6" fill="#1ae89b" stroke="#fff" stroke-width="2"></circle><circle cx="75.25722257745741" cy="227.4074074074074" r="6" fill="#e8731a" stroke="#fff" stroke-width="2"></circle><circle cx="76.53606929024008" cy="227.4074074074074" r="6" fill="#e8731a" stroke="#fff" stroke-width="2"></circle><circle cx="77.81491600302272" cy="227.4074074074074" r="6" fill="#e8731a" stroke="#fff" stroke-width="2"></circle><circle cx="78.77405103760972" cy="227.4074074074074" r="6" fill="#e8731a" stroke="#fff" stroke-width="2"></circle><circle cx="82.29087949776202" cy="227.4074074074074" r="6" fill="#e8731a" stroke="#fff" stroke-width="2"></circle><circle cx="83.56972621054467" cy="243.33333333333334" r="6" fill="#e81a1a" stroke="#fff" stroke-width="2"></circle><circle cx="89.32453641806661" cy="259.25925925925924" r="6" fill="#e81a1a" stroke="#fff" stroke-width="2"></circle><circle cx="102.75242690228448" cy="259.25925925925924" r="6" fill="#e81a1a" stroke="#fff" stroke-width="2"></circle><circle cx="110.42550717898041" cy="259.25925925925924" r="6" fill="#e81a1a" stroke="#fff" stroke-width="2"></circle><circle cx="110.55339185025868" cy="275.1851851851852" r="6" fill="#9b1ae8" stroke="#fff" stroke-width="2"></circle><circle cx="114.26204731732837" cy="227.4074074074074" r="6" fill="#e8731a" stroke="#fff" stroke-width="2"></circle><circle cx="118.09858745567634" cy="227.4074074074074" r="6" fill="#e8731a" stroke="#fff" stroke-width="2"></circle><circle cx="120.01685752485031" cy="227.4074074074074" r="6" fill="#e8731a" stroke="#fff" stroke-width="2"></circle><circle cx="123.85339766319828" cy="227.4074074074074" r="6" fill="#e8731a" stroke="#fff" stroke-width="2"></circle><circle cx="135.36301807824216" cy="227.4074074074074" r="6" fill="#e8731a" stroke="#fff" stroke-width="2"></circle><circle cx="139.1995582165901" cy="227.4074074074074" r="6" fill="#e8731a" stroke="#fff" stroke-width="2"></circle><circle cx="211.77410916700575" cy="100" r="6" fill="#1a73e8" stroke="#fff" stroke-width="2"></circle><circle cx="212.0938208452014" cy="227.4074074074074" r="6" fill="#e8731a" stroke="#fff" stroke-width="2"></circle><circle cx="123.85339766319828" cy="211.48148148148147" r="6" fill="#1a73e8" stroke="#fff" stroke-width="2"></circle><circle cx="216.56978433994072" cy="211.48148148148147" r="6" fill="#1a73e8" stroke="#fff" stroke-width="2"></circle><circle cx="217.20920769633204" cy="227.4074074074074" r="6" fill="#e8731a" stroke="#fff" stroke-width="2"></circle><circle cx="217.20920769633204" cy="227.4074074074074" r="6" fill="#e8731a" stroke="#fff" stroke-width="2"></circle><circle cx="218.16834273091902" cy="291.1111111111111" r="6" fill="#e81a1a" stroke="#fff" stroke-width="2"></circle><circle cx="218.16834273091902" cy="227.4074074074074" r="6" fill="#e8731a" stroke="#fff" stroke-width="2"></circle><circle cx="219.76690112189732" cy="227.4074074074074" r="6" fill="#e8731a" stroke="#fff" stroke-width="2"></circle><circle cx="220.086612800093" cy="291.1111111111111" r="6" fill="#e81a1a" stroke="#fff" stroke-width="2"></circle><circle cx="220.086612800093" cy="307.03703703703707" r="6" fill="#547b48" stroke="#fff" stroke-width="2"></circle><circle cx="222.96401790385397" cy="179.62962962962962" r="6" fill="#e8d81a" stroke="#fff" stroke-width="2"></circle><circle cx="223.6034412602453" cy="291.1111111111111" r="6" fill="#e81a1a" stroke="#fff" stroke-width="2"></circle><circle cx="229.35825146776725" cy="227.4074074074074" r="6" fill="#e8731a" stroke="#fff" stroke-width="2"></circle><circle cx="233.19479160611522" cy="227.4074074074074" r="6" fill="#e8731a" stroke="#fff" stroke-width="2"></circle><circle cx="237.6707551008545" cy="259.25925925925924" r="6" fill="#e81a1a" stroke="#fff" stroke-width="2"></circle><circle cx="240.2284485264198" cy="322.96296296296293" r="6" fill="#1a73e8" stroke="#fff" stroke-width="2"></circle><circle cx="244.7044120211591" cy="195.55555555555554" r="6" fill="#547b48" stroke="#fff" stroke-width="2"></circle><circle cx="246.6226820903331" cy="227.4074074074074" r="6" fill="#e8731a" stroke="#fff" stroke-width="2"></circle><circle cx="252.377492297855" cy="227.4074074074074" r="6" fill="#e8731a" stroke="#fff" stroke-width="2"></circle><circle cx="257.17316747078996" cy="227.4074074074074" r="6" fill="#e8731a" stroke="#fff" stroke-width="2"></circle><circle cx="210.17555077602745" cy="227.4074074074074" r="6" fill="#e8731a" stroke="#fff" stroke-width="2"></circle><circle cx="398.8054409114689" cy="100" r="6" fill="#1a73e8" stroke="#fff" stroke-width="2"></circle><circle cx="400.7237109806429" cy="338.8888888888889" r="6" fill="#e81a1a" stroke="#fff" stroke-width="2"></circle><circle cx="401.68284601522987" cy="307.03703703703707" r="6" fill="#547b48" stroke="#fff" stroke-width="2"></circle><circle cx="402.6419810498169" cy="227.4074074074074" r="6" fill="#e8731a" stroke="#fff" stroke-width="2"></circle><circle cx="403.2814044062082" cy="354.8148148148148" r="6" fill="#e81a1a" stroke="#fff" stroke-width="2"></circle><circle cx="407.43765622275185" cy="131.85185185185185" r="6" fill="#e8731a" stroke="#fff" stroke-width="2"></circle><circle cx="407.43765622275185" cy="115.92592592592592" r="6" fill="#e8731a" stroke="#fff" stroke-width="2"></circle><circle cx="407.7573679009475" cy="131.85185185185185" r="6" fill="#e8731a" stroke="#fff" stroke-width="2"></circle><circle cx="407.7573679009475" cy="115.92592592592592" r="6" fill="#e8731a" stroke="#fff" stroke-width="2"></circle><circle cx="408.0770795791432" cy="307.03703703703707" r="6" fill="#547b48" stroke="#fff" stroke-width="2"></circle><circle cx="409.0362146137302" cy="115.92592592592592" r="6" fill="#e8731a" stroke="#fff" stroke-width="2"></circle><circle cx="409.35592629192587" cy="131.85185185185185" r="6" fill="#e8731a" stroke="#fff" stroke-width="2"></circle><circle cx="409.67563797012144" cy="179.62962962962962" r="6" fill="#e8d81a" stroke="#fff" stroke-width="2"></circle><circle cx="410.3150613265128" cy="370.74074074074076" r="6" fill="#1ae89b" stroke="#fff" stroke-width="2"></circle><circle cx="411.59390803929546" cy="147.77777777777777" r="6" fill="#1ae89b" stroke="#fff" stroke-width="2"></circle><circle cx="412.2333313956867" cy="147.77777777777777" r="6" fill="#1ae89b" stroke="#fff" stroke-width="2"></circle><circle cx="412.55304307388246" cy="259.25925925925924" r="6" fill="#e81a1a" stroke="#fff" stroke-width="2"></circle><circle cx="413.51217810846947" cy="131.85185185185185" r="6" fill="#e8731a" stroke="#fff" stroke-width="2"></circle><circle cx="413.51217810846947" cy="115.92592592592592" r="6" fill="#e8731a" stroke="#fff" stroke-width="2"></circle><circle cx="428.8583386618613" cy="115.92592592592592" r="6" fill="#e8731a" stroke="#fff" stroke-width="2"></circle><circle cx="431.73574376562226" cy="291.1111111111111" r="6" fill="#e81a1a" stroke="#fff" stroke-width="2"></circle><circle cx="438.44968900773114" cy="147.77777777777777" r="6" fill="#1ae89b" stroke="#fff" stroke-width="2"></circle><circle cx="428.8583386618613" cy="131.85185185185185" r="6" fill="#e8731a" stroke="#fff" stroke-width="2"></circle><circle cx="492.16125094460267" cy="131.85185185185185" r="6" fill="#e8731a" stroke="#fff" stroke-width="2"></circle><circle cx="493.75980933558094" cy="100" r="6" fill="#1a73e8" stroke="#fff" stroke-width="2"></circle><circle cx="494.0795210137767" cy="115.92592592592592" r="6" fill="#e8731a" stroke="#fff" stroke-width="2"></circle><circle cx="494.0795210137767" cy="386.6666666666667" r="6" fill="#9b1ae8" stroke="#fff" stroke-width="2"></circle><circle cx="499.8343312212986" cy="338.8888888888889" r="6" fill="#e81a1a" stroke="#fff" stroke-width="2"></circle><circle cx="500.15404289949424" cy="259.25925925925924" r="6" fill="#e81a1a" stroke="#fff" stroke-width="2"></circle><circle cx="501.11317793408125" cy="402.5925925925926" r="6" fill="#e8d81a" stroke="#fff" stroke-width="2"></circle><circle cx="501.43288961227694" cy="131.85185185185185" r="6" fill="#e8731a" stroke="#fff" stroke-width="2"></circle><circle cx="501.43288961227694" cy="115.92592592592592" r="6" fill="#e8731a" stroke="#fff" stroke-width="2"></circle><circle cx="501.43288961227694" cy="147.77777777777777" r="6" fill="#1ae89b" stroke="#fff" stroke-width="2"></circle><circle cx="501.6247166191943" cy="147.77777777777777" r="6" fill="#1ae89b" stroke="#fff" stroke-width="2"></circle><circle cx="504.3102947160379" cy="227.4074074074074" r="6" fill="#e8731a" stroke="#fff" stroke-width="2"></circle><circle cx="505.58914142882054" cy="259.25925925925924" r="6" fill="#e81a1a" stroke="#fff" stroke-width="2"></circle><circle cx="506.22856478521186" cy="147.77777777777777" r="6" fill="#1ae89b" stroke="#fff" stroke-width="2"></circle><circle cx="505.58914142882054" cy="227.4074074074074" r="6" fill="#e8731a" stroke="#fff" stroke-width="2"></circle><circle cx="513.2622217055165" cy="147.77777777777777" r="6" fill="#1ae89b" stroke="#fff" stroke-width="2"></circle><circle cx="514.5410684182991" cy="227.4074074074074" r="6" fill="#e8731a" stroke="#fff" stroke-width="2"></circle><circle cx="514.6050107539384" cy="147.77777777777777" r="6" fill="#1ae89b" stroke="#fff" stroke-width="2"></circle><circle cx="514.6689530895774" cy="147.77777777777777" r="6" fill="#1ae89b" stroke="#fff" stroke-width="2"></circle><circle cx="517.41847352206" cy="418.51851851851853" r="6" fill="#e81a1a" stroke="#fff" stroke-width="2"></circle><circle cx="517.7381852002558" cy="227.4074074074074" r="6" fill="#e8731a" stroke="#fff" stroke-width="2"></circle><circle cx="517.7381852002558" cy="147.77777777777777" r="6" fill="#1ae89b" stroke="#fff" stroke-width="2"></circle><circle cx="522.2141486949951" cy="147.77777777777777" r="6" fill="#1ae89b" stroke="#fff" stroke-width="2"></circle><circle cx="525.4112654769516" cy="322.96296296296293" r="6" fill="#1a73e8" stroke="#fff" stroke-width="2"></circle><circle cx="525.4112654769516" cy="147.77777777777777" r="6" fill="#1ae89b" stroke="#fff" stroke-width="2"></circle><circle cx="525.4112654769516" cy="147.77777777777777" r="6" fill="#1ae89b" stroke="#fff" stroke-width="2"></circle><circle cx="525.4112654769516" cy="147.77777777777777" r="6" fill="#1ae89b" stroke="#fff" stroke-width="2"></circle><circle cx="528.6083822589084" cy="147.77777777777777" r="6" fill="#1ae89b" stroke="#fff" stroke-width="2"></circle><circle cx="532.4449223972563" cy="147.77777777777777" r="6" fill="#1ae89b" stroke="#fff" stroke-width="2"></circle><circle cx="671.1997907341743" cy="147.77777777777777" r="6" fill="#1ae89b" stroke="#fff" stroke-width="2"></circle><circle cx="675.6757542289135" cy="259.25925925925924" r="6" fill="#e81a1a" stroke="#fff" stroke-width="2"></circle><circle cx="675.6757542289135" cy="354.8148148148148" r="6" fill="#e81a1a" stroke="#fff" stroke-width="2"></circle><circle cx="675.6757542289135" cy="227.4074074074074" r="6" fill="#e8731a" stroke="#fff" stroke-width="2"></circle><circle cx="676.6348892635006" cy="115.92592592592592" r="6" fill="#e8731a" stroke="#fff" stroke-width="2"></circle><circle cx="676.6348892635006" cy="131.85185185185185" r="6" fill="#e8731a" stroke="#fff" stroke-width="2"></circle><circle cx="677.2743126198919" cy="243.33333333333334" r="6" fill="#e81a1a" stroke="#fff" stroke-width="2"></circle><circle cx="676.9546009416962" cy="386.6666666666667" r="6" fill="#9b1ae8" stroke="#fff" stroke-width="2"></circle><circle cx="677.5940242980876" cy="131.85185185185185" r="6" fill="#e8731a" stroke="#fff" stroke-width="2"></circle><circle cx="678.2334476544788" cy="307.03703703703707" r="6" fill="#547b48" stroke="#fff" stroke-width="2"></circle><circle cx="678.2334476544788" cy="386.6666666666667" r="6" fill="#9b1ae8" stroke="#fff" stroke-width="2"></circle><circle cx="677.5940242980876" cy="131.85185185185185" r="6" fill="#e8731a" stroke="#fff" stroke-width="2"></circle><circle cx="677.5940242980876" cy="115.92592592592592" r="6" fill="#e8731a" stroke="#fff" stroke-width="2"></circle><circle cx="678.8728710108702" cy="354.8148148148148" r="6" fill="#e81a1a" stroke="#fff" stroke-width="2"></circle><circle cx="679.1925826890658" cy="227.4074074074074" r="6" fill="#e8731a" stroke="#fff" stroke-width="2"></circle><circle cx="679.1925826890658" cy="147.77777777777777" r="6" fill="#1ae89b" stroke="#fff" stroke-width="2"></circle><circle cx="680.1517177236528" cy="418.51851851851853" r="6" fill="#e81a1a" stroke="#fff" stroke-width="2"></circle><circle cx="684.3079695401965" cy="227.4074074074074" r="6" fill="#e8731a" stroke="#fff" stroke-width="2"></circle><circle cx="683.9882578620008" cy="418.51851851851853" r="6" fill="#e81a1a" stroke="#fff" stroke-width="2"></circle><circle cx="683.9882578620008" cy="386.6666666666667" r="6" fill="#9b1ae8" stroke="#fff" stroke-width="2"></circle><circle cx="687.1853746439574" cy="386.6666666666667" r="6" fill="#9b1ae8" stroke="#fff" stroke-width="2"></circle><circle cx="687.1853746439574" cy="227.4074074074074" r="6" fill="#e8731a" stroke="#fff" stroke-width="2"></circle><circle cx="687.1853746439574" cy="291.1111111111111" r="6" fill="#e81a1a" stroke="#fff" stroke-width="2"></circle><circle cx="689.1036447131313" cy="243.33333333333334" r="6" fill="#e81a1a" stroke="#fff" stroke-width="2"></circle><circle cx="691.0219147823054" cy="227.4074074074074" r="6" fill="#e8731a" stroke="#fff" stroke-width="2"></circle><circle cx="691.0219147823054" cy="147.77777777777777" r="6" fill="#1ae89b" stroke="#fff" stroke-width="2"></circle><circle cx="691.6613381386967" cy="147.77777777777777" r="6" fill="#1ae89b" stroke="#fff" stroke-width="2"></circle><circle cx="691.6613381386967" cy="131.85185185185185" r="6" fill="#e8731a" stroke="#fff" stroke-width="2"></circle><circle cx="691.6613381386967" cy="115.92592592592592" r="6" fill="#e8731a" stroke="#fff" stroke-width="2"></circle><circle cx="691.6613381386967" cy="147.77777777777777" r="6" fill="#1ae89b" stroke="#fff" stroke-width="2"></circle><circle cx="699.3344184153927" cy="434.44444444444446" r="6" fill="#1a73e8" stroke="#fff" stroke-width="2"></circle><circle cx="701.2526884845666" cy="147.77777777777777" r="6" fill="#1ae89b" stroke="#fff" stroke-width="2"></circle><circle cx="703.1709585537407" cy="147.77777777777777" r="6" fill="#1ae89b" stroke="#fff" stroke-width="2"></circle><circle cx="705.0892286229147" cy="147.77777777777777" r="6" fill="#1ae89b" stroke="#fff" stroke-width="2"></circle><circle cx="707.0074986920887" cy="450.3703703703704" r="6" fill="#e8731a" stroke="#fff" stroke-width="2"></circle><circle cx="708.9257687612625" cy="147.77777777777777" r="6" fill="#1ae89b" stroke="#fff" stroke-width="2"></circle><circle cx="712.7623088996105" cy="147.77777777777777" r="6" fill="#1ae89b" stroke="#fff" stroke-width="2"></circle><circle cx="715.9594256815673" cy="147.77777777777777" r="6" fill="#1ae89b" stroke="#fff" stroke-width="2"></circle><circle cx="691.6613381386967" cy="131.85185185185185" r="6" fill="#e8731a" stroke="#fff" stroke-width="2"></circle><circle cx="691.6613381386967" cy="115.92592592592592" r="6" fill="#e8731a" stroke="#fff" stroke-width="2"></circle><circle cx="749.2094402139162" cy="418.51851851851853" r="6" fill="#e81a1a" stroke="#fff" stroke-width="2"></circle><circle cx="758.800790559786" cy="418.51851851851853" r="6" fill="#e81a1a" stroke="#fff" stroke-width="2"></circle><circle cx="799.0844620124398" cy="466.2962962962963" r="6" fill="#e81a1a" stroke="#fff" stroke-width="2"></circle><circle cx="783.7383014590478" cy="115.92592592592592" r="6" fill="#e8731a" stroke="#fff" stroke-width="2"></circle><circle cx="868.1421845027031" cy="466.2962962962963" r="6" fill="#e81a1a" stroke="#fff" stroke-width="2"></circle><circle cx="875.1758414230077" cy="100" r="6" fill="#1a73e8" stroke="#fff" stroke-width="2"></circle><circle cx="878.69266988316" cy="291.1111111111111" r="6" fill="#e81a1a" stroke="#fff" stroke-width="2"></circle><circle cx="877.7335348485728" cy="482.22222222222223" r="6" fill="#e81a1a" stroke="#fff" stroke-width="2"></circle><circle cx="878.0532465267686" cy="307.03703703703707" r="6" fill="#547b48" stroke="#fff" stroke-width="2"></circle><circle cx="880.2912282741382" cy="498.14814814814815" r="6" fill="#9b1ae8" stroke="#fff" stroke-width="2"></circle><circle cx="880.2912282741382" cy="131.85185185185185" r="6" fill="#e8731a" stroke="#fff" stroke-width="2"></circle><circle cx="883.4883450560949" cy="227.4074074074074" r="6" fill="#e8731a" stroke="#fff" stroke-width="2"></circle><circle cx="880.2912282741382" cy="386.6666666666667" r="6" fill="#9b1ae8" stroke="#fff" stroke-width="2"></circle><circle cx="883.8080567342905" cy="514.0740740740741" r="6" fill="#e8731a" stroke="#fff" stroke-width="2"></circle><circle cx="886.3657501598559" cy="386.6666666666667" r="6" fill="#9b1ae8" stroke="#fff" stroke-width="2"></circle><circle cx="886.3657501598559" cy="418.51851851851853" r="6" fill="#e81a1a" stroke="#fff" stroke-width="2"></circle><circle cx="887.9643085508342" cy="418.51851851851853" r="6" fill="#e81a1a" stroke="#fff" stroke-width="2"></circle><circle cx="892.4402720455735" cy="482.22222222222223" r="6" fill="#e81a1a" stroke="#fff" stroke-width="2"></circle><circle cx="894.9979654711387" cy="514.0740740740741" r="6" fill="#e8731a" stroke="#fff" stroke-width="2"></circle><circle cx="894.9979654711387" cy="482.22222222222223" r="6" fill="#e81a1a" stroke="#fff" stroke-width="2"></circle><circle cx="896.9162355403128" cy="514.0740740740741" r="6" fill="#e8731a" stroke="#fff" stroke-width="2"></circle><circle cx="899.473928965878" cy="131.85185185185185" r="6" fill="#e8731a" stroke="#fff" stroke-width="2"></circle><circle cx="899.473928965878" cy="115.92592592592592" r="6" fill="#e8731a" stroke="#fff" stroke-width="2"></circle><circle cx="903.310469104226" cy="386.6666666666667" r="6" fill="#9b1ae8" stroke="#fff" stroke-width="2"></circle><circle cx="1133.694704412021" cy="100" r="6" fill="#1a73e8" stroke="#fff" stroke-width="2"></circle><circle cx="1136.0605708306691" cy="354.8148148148148" r="6" fill="#e81a1a" stroke="#fff" stroke-width="2"></circle><circle cx="1137.3394175434519" cy="514.0740740740741" r="6" fill="#e8731a" stroke="#fff" stroke-width="2"></circle><circle cx="1137.978840899843" cy="338.8888888888889" r="6" fill="#e81a1a" stroke="#fff" stroke-width="2"></circle><circle cx="1139.897110969017" cy="370.74074074074076" r="6" fill="#1ae89b" stroke="#fff" stroke-width="2"></circle><circle cx="1140.2168226472127" cy="418.51851851851853" r="6" fill="#e81a1a" stroke="#fff" stroke-width="2"></circle><circle cx="1141.4956693599954" cy="386.6666666666667" r="6" fill="#9b1ae8" stroke="#fff" stroke-width="2"></circle><circle cx="1141.4956693599954" cy="243.33333333333334" r="6" fill="#e81a1a" stroke="#fff" stroke-width="2"></circle><circle cx="1141.4956693599954" cy="291.1111111111111" r="6" fill="#e81a1a" stroke="#fff" stroke-width="2"></circle><circle cx="1141.815381038191" cy="291.1111111111111" r="6" fill="#e81a1a" stroke="#fff" stroke-width="2"></circle><circle cx="1142.7745160727782" cy="418.51851851851853" r="6" fill="#e81a1a" stroke="#fff" stroke-width="2"></circle><circle cx="1142.7745160727782" cy="386.6666666666667" r="6" fill="#9b1ae8" stroke="#fff" stroke-width="2"></circle><circle cx="1142.7745160727782" cy="243.33333333333334" r="6" fill="#e81a1a" stroke="#fff" stroke-width="2"></circle><circle cx="1142.7745160727782" cy="514.0740740740741" r="6" fill="#e8731a" stroke="#fff" stroke-width="2"></circle><circle cx="1142.7745160727782" cy="291.1111111111111" r="6" fill="#e81a1a" stroke="#fff" stroke-width="2"></circle><circle cx="1146.1634598616522" cy="291.1111111111111" r="6" fill="#e81a1a" stroke="#fff" stroke-width="2"></circle><circle cx="1146.1634598616522" cy="482.22222222222223" r="6" fill="#e81a1a" stroke="#fff" stroke-width="2"></circle><circle cx="1146.1634598616522" cy="482.22222222222223" r="6" fill="#e81a1a" stroke="#fff" stroke-width="2"></circle><circle cx="1149.1687496366912" cy="386.6666666666667" r="6" fill="#9b1ae8" stroke="#fff" stroke-width="2"></circle><circle cx="1146.1634598616522" cy="386.6666666666667" r="6" fill="#9b1ae8" stroke="#fff" stroke-width="2"></circle><circle cx="1150" cy="514.0740740740741" r="6" fill="#e8731a" stroke="#fff" stroke-width="2"></circle></svg>