<svg width="1200" height="600" xmlns="http://www.w3.org/2000/svg"><rect width="1200" height="600" fill="#f9f9f9"></rect><text x="600" y="30" text-anchor="middle" font-size="20px" font-weight="bold">Mestinon/Pyridostigminbromid Wirkungskurve</text><g transform="translate(0, 550)" fill="none" font-size="10" font-family="sans-serif" text-anchor="middle"><path class="domain" stroke="currentColor" d="M50.5,6V0.5H1150.5V6"></path><g class="tick" opacity="1" transform="translate(92.52037351443124,0)"><line stroke="currentColor" y2="6"></line><text fill="currentColor" y="9" dy="0.71em" transform="rotate(-45)" text-anchor="end">19.06.2025</text></g><g class="tick" opacity="1" transform="translate(182.16383701188454,0)"><line stroke="currentColor" y2="6"></line><text fill="currentColor" y="9" dy="0.71em" transform="rotate(-45)" text-anchor="end">20.06.2025</text></g><g class="tick" opacity="1" transform="translate(271.8073005093379,0)"><line stroke="currentColor" y2="6"></line><text fill="currentColor" y="9" dy="0.71em" transform="rotate(-45)" text-anchor="end">21.06.2025</text></g><g class="tick" opacity="1" transform="translate(361.4507640067912,0)"><line stroke="currentColor" y2="6"></line><text fill="currentColor" y="9" dy="0.71em" transform="rotate(-45)" text-anchor="end">22.06.2025</text></g><g class="tick" opacity="1" transform="translate(451.0942275042445,0)"><line stroke="currentColor" y2="6"></line><text fill="currentColor" y="9" dy="0.71em" transform="rotate(-45)" text-anchor="end">23.06.2025</text></g><g class="tick" opacity="1" transform="translate(540.7376910016978,0)"><line stroke="currentColor" y2="6"></line><text fill="currentColor" y="9" dy="0.71em" transform="rotate(-45)" text-anchor="end">24.06.2025</text></g><g class="tick" opacity="1" transform="translate(630.3811544991511,0)"><line stroke="currentColor" y2="6"></line><text fill="currentColor" y="9" dy="0.71em" transform="rotate(-45)" text-anchor="end">25.06.2025</text></g><g class="tick" opacity="1" transform="translate(720.0246179966044,0)"><line stroke="currentColor" y2="6"></line><text fill="currentColor" y="9" dy="0.71em" transform="rotate(-45)" text-anchor="end">26.06.2025</text></g><g class="tick" opacity="1" transform="translate(809.6680814940578,0)"><line stroke="currentColor" y2="6"></line><text fill="currentColor" y="9" dy="0.71em" transform="rotate(-45)" text-anchor="end">27.06.2025</text></g><g class="tick" opacity="1" transform="translate(899.311544991511,0)"><line stroke="currentColor" y2="6"></line><text fill="currentColor" y="9" dy="0.71em" transform="rotate(-45)" text-anchor="end">28.06.2025</text></g><g class="tick" opacity="1" transform="translate(988.9550084889644,0)"><line stroke="currentColor" y2="6"></line><text fill="currentColor" y="9" dy="0.71em" transform="rotate(-45)" text-anchor="end">29.06.2025</text></g><g class="tick" opacity="1" transform="translate(1078.5984719864177,0)"><line stroke="currentColor" y2="6"></line><text fill="currentColor" y="9" dy="0.71em" transform="rotate(-45)" text-anchor="end">30.06.2025</text></g></g><circle cx="100" cy="70" r="6" fill="#1a73e8"></circle><text x="120" y="75" font-size="14px">Mestinon Einnahme</text><circle cx="100" cy="95" r="6" fill="#e8731a"></circle><text x="120" y="100" font-size="14px">Doppeltsehen</text><circle cx="100" cy="120" r="6" fill="#e8731a"></circle><text x="120" y="125" font-size="14px">Doppeltsehen</text><circle cx="100" cy="145" r="6" fill="#1ae89b"></circle><text x="120" y="150" font-size="14px">Zeilenmix Laptop</text><circle cx="100" cy="170" r="6" fill="#9b1ae8"></circle><text x="120" y="175" font-size="14px">Lid linkes Auge</text><circle cx="100" cy="195" r="6" fill="#e8d81a"></circle><text x="120" y="200" font-size="14px">Muskelzucken</text><circle cx="100" cy="220" r="6" fill="#547b48"></circle><text x="120" y="225" font-size="14px">Darm</text><circle cx="100" cy="245" r="6" fill="#1a73e8"></circle><text x="120" y="250" font-size="14px">Sonstiges</text><circle cx="100" cy="270" r="6" fill="#e8731a"></circle><text x="120" y="275" font-size="14px">Doppeltsehen</text><circle cx="100" cy="295" r="6" fill="#e81a1a"></circle><text x="120" y="300" font-size="14px">Nebenwirkung</text><circle cx="100" cy="320" r="6" fill="#e81a1a"></circle><text x="120" y="325" font-size="14px">Nebenwirkung</text><circle cx="100" cy="345" r="6" fill="#9b1ae8"></circle><text x="120" y="350" font-size="14px">Hausarztnotdienst</text><circle cx="100" cy="370" r="6" fill="#e81a1a"></circle><text x="120" y="375" font-size="14px">Nebenwirkung</text><circle cx="100" cy="395" r="6" fill="#547b48"></circle><text x="120" y="400" font-size="14px">Aufstoßen</text><circle cx="100" cy="420" r="6" fill="#1a73e8"></circle><text x="120" y="425" font-size="14px">Blähungen</text><circle cx="100" cy="445" r="6" fill="#e81a1a"></circle><text x="120" y="450" font-size="14px">Nebenwirkung</text><circle cx="100" cy="470" r="6" fill="#e81a1a"></circle><text x="120" y="475" font-size="14px">Nebenwirkung</text><circle cx="100" cy="495" r="6" fill="#1ae89b"></circle><text x="120" y="500" font-size="14px">Speichelfluss</text><circle cx="100" cy="520" r="6" fill="#9b1ae8"></circle><text x="120" y="525" font-size="14px">Zeilemix Laptop</text><circle cx="100" cy="545" r="6" fill="#e8d81a"></circle><text x="120" y="550" font-size="14px">Nase läuft</text><circle cx="100" cy="570" r="6" fill="#e81a1a"></circle><text x="120" y="575" font-size="14px">Nebenwirkung</text><circle cx="100" cy="595" r="6" fill="#1a73e8"></circle><text x="120" y="600" font-size="14px">Doppensehen</text><circle cx="100" cy="620" r="6" fill="#e8731a"></circle><text x="120" y="625" font-size="14px">Vorlesen</text><circle cx="100" cy="645" r="6" fill="#e81a1a"></circle><text x="120" y="650" font-size="14px">Stuhlgang</text><circle cx="100" cy="670" r="6" fill="#e81a1a"></circle><text x="120" y="675" font-size="14px">Nebenwirkung</text><circle cx="100" cy="695" r="6" fill="#9b1ae8"></circle><text x="120" y="700" font-size="14px">Zeilenmix</text><circle cx="100" cy="720" r="6" fill="#e8731a"></circle><text x="120" y="725" font-size="14px">Doppeltsehen</text><circle cx="50" cy="100" r="6" fill="#1a73e8" stroke="#fff" stroke-width="2"></circle><circle cx="52.801358234295414" cy="115.92592592592592" r="6" fill="#e8731a" stroke="#fff" stroke-width="2"></circle><circle cx="52.801358234295414" cy="131.85185185185185" r="6" fill="#e8731a" stroke="#fff" stroke-width="2"></circle><circle cx="53.112620260328235" cy="147.77777777777777" r="6" fill="#1ae89b" stroke="#fff" stroke-width="2"></circle><circle cx="54.98019241652518" cy="147.77777777777777" r="6" fill="#1ae89b" stroke="#fff" stroke-width="2"></circle><circle cx="55.291454442558006" cy="163.7037037037037" r="6" fill="#9b1ae8" stroke="#fff" stroke-width="2"></circle><circle cx="55.60271646859083" cy="163.7037037037037" r="6" fill="#9b1ae8" stroke="#fff" stroke-width="2"></circle><circle cx="62.76174306734578" cy="115.92592592592592" r="6" fill="#e8731a" stroke="#fff" stroke-width="2"></circle><circle cx="62.76174306734578" cy="131.85185185185185" r="6" fill="#e8731a" stroke="#fff" stroke-width="2"></circle><circle cx="63.07300509337861" cy="100" r="6" fill="#1a73e8" stroke="#fff" stroke-width="2"></circle><circle cx="64.62931522354273" cy="179.62962962962962" r="6" fill="#e8d81a" stroke="#fff" stroke-width="2"></circle><circle cx="65.5631013016412" cy="195.55555555555554" r="6" fill="#547b48" stroke="#fff" stroke-width="2"></circle><circle cx="64.62931522354273" cy="147.77777777777777" r="6" fill="#1ae89b" stroke="#fff" stroke-width="2"></circle><circle cx="67.43067345783814" cy="211.48148148148147" r="6" fill="#1a73e8" stroke="#fff" stroke-width="2"></circle><circle cx="70.8545557441992" cy="147.77777777777777" r="6" fill="#1ae89b" stroke="#fff" stroke-width="2"></circle><circle cx="73.96717600452745" cy="147.77777777777777" r="6" fill="#1ae89b" stroke="#fff" stroke-width="2"></circle><circle cx="74.58970005659309" cy="227.4074074074074" r="6" fill="#e8731a" stroke="#fff" stroke-width="2"></circle><circle cx="75.83474816072439" cy="227.4074074074074" r="6" fill="#e8731a" stroke="#fff" stroke-width="2"></circle><circle cx="77.0797962648557" cy="227.4074074074074" r="6" fill="#e8731a" stroke="#fff" stroke-width="2"></circle><circle cx="78.01358234295415" cy="227.4074074074074" r="6" fill="#e8731a" stroke="#fff" stroke-width="2"></circle><circle cx="81.43746462931523" cy="227.4074074074074" r="6" fill="#e8731a" stroke="#fff" stroke-width="2"></circle><circle cx="82.68251273344652" cy="243.33333333333334" r="6" fill="#e81a1a" stroke="#fff" stroke-width="2"></circle><circle cx="88.28522920203736" cy="259.25925925925924" r="6" fill="#e81a1a" stroke="#fff" stroke-width="2"></circle><circle cx="101.35823429541597" cy="259.25925925925924" r="6" fill="#e81a1a" stroke="#fff" stroke-width="2"></circle><circle cx="108.82852292020374" cy="259.25925925925924" r="6" fill="#e81a1a" stroke="#fff" stroke-width="2"></circle><circle cx="108.95302773061687" cy="275.1851851851852" r="6" fill="#9b1ae8" stroke="#fff" stroke-width="2"></circle><circle cx="112.56366723259762" cy="227.4074074074074" r="6" fill="#e8731a" stroke="#fff" stroke-width="2"></circle><circle cx="116.29881154499151" cy="227.4074074074074" r="6" fill="#e8731a" stroke="#fff" stroke-width="2"></circle><circle cx="118.16638370118847" cy="227.4074074074074" r="6" fill="#e8731a" stroke="#fff" stroke-width="2"></circle><circle cx="121.90152801358235" cy="227.4074074074074" r="6" fill="#e8731a" stroke="#fff" stroke-width="2"></circle><circle cx="133.106960950764" cy="227.4074074074074" r="6" fill="#e8731a" stroke="#fff" stroke-width="2"></circle><circle cx="136.8421052631579" cy="227.4074074074074" r="6" fill="#e8731a" stroke="#fff" stroke-width="2"></circle><circle cx="207.49858517260893" cy="100" r="6" fill="#1a73e8" stroke="#fff" stroke-width="2"></circle><circle cx="207.80984719864176" cy="227.4074074074074" r="6" fill="#e8731a" stroke="#fff" stroke-width="2"></circle><circle cx="121.90152801358235" cy="211.48148148148147" r="6" fill="#1a73e8" stroke="#fff" stroke-width="2"></circle><circle cx="212.1675155631013" cy="211.48148148148147" r="6" fill="#1a73e8" stroke="#fff" stroke-width="2"></circle><circle cx="212.79003961516696" cy="227.4074074074074" r="6" fill="#e8731a" stroke="#fff" stroke-width="2"></circle><circle cx="212.79003961516696" cy="227.4074074074074" r="6" fill="#e8731a" stroke="#fff" stroke-width="2"></circle><circle cx="213.7238256932654" cy="291.1111111111111" r="6" fill="#e81a1a" stroke="#fff" stroke-width="2"></circle><circle cx="213.7238256932654" cy="227.4074074074074" r="6" fill="#e8731a" stroke="#fff" stroke-width="2"></circle><circle cx="215.28013582342956" cy="227.4074074074074" r="6" fill="#e8731a" stroke="#fff" stroke-width="2"></circle><circle cx="215.59139784946237" cy="291.1111111111111" r="6" fill="#e81a1a" stroke="#fff" stroke-width="2"></circle><circle cx="215.59139784946237" cy="307.03703703703707" r="6" fill="#547b48" stroke="#fff" stroke-width="2"></circle><circle cx="218.39275608375777" cy="179.62962962962962" r="6" fill="#e8d81a" stroke="#fff" stroke-width="2"></circle><circle cx="219.01528013582345" cy="291.1111111111111" r="6" fill="#e81a1a" stroke="#fff" stroke-width="2"></circle><circle cx="224.61799660441426" cy="227.4074074074074" r="6" fill="#e8731a" stroke="#fff" stroke-width="2"></circle><circle cx="228.35314091680814" cy="227.4074074074074" r="6" fill="#e8731a" stroke="#fff" stroke-width="2"></circle><circle cx="232.7108092812677" cy="259.25925925925924" r="6" fill="#e81a1a" stroke="#fff" stroke-width="2"></circle><circle cx="235.20090548953027" cy="322.96296296296293" r="6" fill="#1a73e8" stroke="#fff" stroke-width="2"></circle><circle cx="239.5585738539898" cy="195.55555555555554" r="6" fill="#547b48" stroke="#fff" stroke-width="2"></circle><circle cx="241.42614601018676" cy="227.4074074074074" r="6" fill="#e8731a" stroke="#fff" stroke-width="2"></circle><circle cx="247.02886247877757" cy="227.4074074074074" r="6" fill="#e8731a" stroke="#fff" stroke-width="2"></circle><circle cx="251.69779286926996" cy="227.4074074074074" r="6" fill="#e8731a" stroke="#fff" stroke-width="2"></circle><circle cx="205.9422750424448" cy="227.4074074074074" r="6" fill="#e8731a" stroke="#fff" stroke-width="2"></circle><circle cx="389.586870401811" cy="100" r="6" fill="#1a73e8" stroke="#fff" stroke-width="2"></circle><circle cx="391.4544425580079" cy="338.8888888888889" r="6" fill="#e81a1a" stroke="#fff" stroke-width="2"></circle><circle cx="392.38822863610636" cy="307.03703703703707" r="6" fill="#547b48" stroke="#fff" stroke-width="2"></circle><circle cx="393.32201471420484" cy="227.4074074074074" r="6" fill="#e8731a" stroke="#fff" stroke-width="2"></circle><circle cx="393.9445387662705" cy="354.8148148148148" r="6" fill="#e81a1a" stroke="#fff" stroke-width="2"></circle><circle cx="397.9909451046972" cy="131.85185185185185" r="6" fill="#e8731a" stroke="#fff" stroke-width="2"></circle><circle cx="397.9909451046972" cy="115.92592592592592" r="6" fill="#e8731a" stroke="#fff" stroke-width="2"></circle><circle cx="398.30220713073004" cy="131.85185185185185" r="6" fill="#e8731a" stroke="#fff" stroke-width="2"></circle><circle cx="398.30220713073004" cy="115.92592592592592" r="6" fill="#e8731a" stroke="#fff" stroke-width="2"></circle><circle cx="398.6134691567629" cy="307.03703703703707" r="6" fill="#547b48" stroke="#fff" stroke-width="2"></circle><circle cx="399.5472552348614" cy="115.92592592592592" r="6" fill="#e8731a" stroke="#fff" stroke-width="2"></circle><circle cx="399.8585172608942" cy="131.85185185185185" r="6" fill="#e8731a" stroke="#fff" stroke-width="2"></circle><circle cx="400.169779286927" cy="179.62962962962962" r="6" fill="#e8d81a" stroke="#fff" stroke-width="2"></circle><circle cx="400.79230333899267" cy="370.74074074074076" r="6" fill="#1ae89b" stroke="#fff" stroke-width="2"></circle><circle cx="402.03735144312395" cy="147.77777777777777" r="6" fill="#1ae89b" stroke="#fff" stroke-width="2"></circle><circle cx="402.65987549518957" cy="147.77777777777777" r="6" fill="#1ae89b" stroke="#fff" stroke-width="2"></circle><circle cx="402.9711375212224" cy="259.25925925925924" r="6" fill="#e81a1a" stroke="#fff" stroke-width="2"></circle><circle cx="403.90492359932085" cy="131.85185185185185" r="6" fill="#e8731a" stroke="#fff" stroke-width="2"></circle><circle cx="403.90492359932085" cy="115.92592592592592" r="6" fill="#e8731a" stroke="#fff" stroke-width="2"></circle><circle cx="418.84550084889645" cy="115.92592592592592" r="6" fill="#e8731a" stroke="#fff" stroke-width="2"></circle><circle cx="421.6468590831919" cy="291.1111111111111" r="6" fill="#e81a1a" stroke="#fff" stroke-width="2"></circle><circle cx="428.1833616298812" cy="147.77777777777777" r="6" fill="#1ae89b" stroke="#fff" stroke-width="2"></circle><circle cx="418.84550084889645" cy="131.85185185185185" r="6" fill="#e8731a" stroke="#fff" stroke-width="2"></circle><circle cx="480.4753820033955" cy="131.85185185185185" r="6" fill="#e8731a" stroke="#fff" stroke-width="2"></circle><circle cx="482.0316921335597" cy="100" r="6" fill="#1a73e8" stroke="#fff" stroke-width="2"></circle><circle cx="482.3429541595925" cy="115.92592592592592" r="6" fill="#e8731a" stroke="#fff" stroke-width="2"></circle><circle cx="482.3429541595925" cy="386.6666666666667" r="6" fill="#9b1ae8" stroke="#fff" stroke-width="2"></circle><circle cx="487.94567062818334" cy="338.8888888888889" r="6" fill="#e81a1a" stroke="#fff" stroke-width="2"></circle><circle cx="488.25693265421614" cy="259.25925925925924" r="6" fill="#e81a1a" stroke="#fff" stroke-width="2"></circle><circle cx="489.1907187323146" cy="402.5925925925926" r="6" fill="#e8d81a" stroke="#fff" stroke-width="2"></circle><circle cx="489.5019807583475" cy="131.85185185185185" r="6" fill="#e8731a" stroke="#fff" stroke-width="2"></circle><circle cx="489.5019807583475" cy="115.92592592592592" r="6" fill="#e8731a" stroke="#fff" stroke-width="2"></circle><circle cx="489.5019807583475" cy="147.77777777777777" r="6" fill="#1ae89b" stroke="#fff" stroke-width="2"></circle><circle cx="489.6887379739672" cy="147.77777777777777" r="6" fill="#1ae89b" stroke="#fff" stroke-width="2"></circle><circle cx="492.3033389926429" cy="227.4074074074074" r="6" fill="#e8731a" stroke="#fff" stroke-width="2"></circle><circle cx="493.54838709677415" cy="259.25925925925924" r="6" fill="#e81a1a" stroke="#fff" stroke-width="2"></circle><circle cx="494.1709111488398" cy="147.77777777777777" r="6" fill="#1ae89b" stroke="#fff" stroke-width="2"></circle><circle cx="493.54838709677415" cy="227.4074074074074" r="6" fill="#e8731a" stroke="#fff" stroke-width="2"></circle><circle cx="501.018675721562" cy="147.77777777777777" r="6" fill="#1ae89b" stroke="#fff" stroke-width="2"></circle><circle cx="502.26372382569326" cy="227.4074074074074" r="6" fill="#e8731a" stroke="#fff" stroke-width="2"></circle><circle cx="502.3259762308998" cy="147.77777777777777" r="6" fill="#1ae89b" stroke="#fff" stroke-width="2"></circle><circle cx="502.38822863610636" cy="147.77777777777777" r="6" fill="#1ae89b" stroke="#fff" stroke-width="2"></circle><circle cx="505.0650820599887" cy="418.51851851851853" r="6" fill="#e81a1a" stroke="#fff" stroke-width="2"></circle><circle cx="505.37634408602156" cy="227.4074074074074" r="6" fill="#e8731a" stroke="#fff" stroke-width="2"></circle><circle cx="505.37634408602156" cy="147.77777777777777" r="6" fill="#1ae89b" stroke="#fff" stroke-width="2"></circle><circle cx="509.73401245048103" cy="147.77777777777777" r="6" fill="#1ae89b" stroke="#fff" stroke-width="2"></circle><circle cx="512.8466327108092" cy="322.96296296296293" r="6" fill="#1a73e8" stroke="#fff" stroke-width="2"></circle><circle cx="512.8466327108092" cy="147.77777777777777" r="6" fill="#1ae89b" stroke="#fff" stroke-width="2"></circle><circle cx="512.8466327108092" cy="147.77777777777777" r="6" fill="#1ae89b" stroke="#fff" stroke-width="2"></circle><circle cx="512.8466327108092" cy="147.77777777777777" r="6" fill="#1ae89b" stroke="#fff" stroke-width="2"></circle><circle cx="515.9592529711375" cy="147.77777777777777" r="6" fill="#1ae89b" stroke="#fff" stroke-width="2"></circle><circle cx="519.6943972835314" cy="147.77777777777777" r="6" fill="#1ae89b" stroke="#fff" stroke-width="2"></circle><circle cx="654.782116581777" cy="147.77777777777777" r="6" fill="#1ae89b" stroke="#fff" stroke-width="2"></circle><circle cx="659.1397849462364" cy="259.25925925925924" r="6" fill="#e81a1a" stroke="#fff" stroke-width="2"></circle><circle cx="659.1397849462364" cy="354.8148148148148" r="6" fill="#e81a1a" stroke="#fff" stroke-width="2"></circle><circle cx="659.1397849462364" cy="227.4074074074074" r="6" fill="#e8731a" stroke="#fff" stroke-width="2"></circle><circle cx="660.073571024335" cy="115.92592592592592" r="6" fill="#e8731a" stroke="#fff" stroke-width="2"></circle><circle cx="660.073571024335" cy="131.85185185185185" r="6" fill="#e8731a" stroke="#fff" stroke-width="2"></circle><circle cx="660.6960950764008" cy="243.33333333333334" r="6" fill="#e81a1a" stroke="#fff" stroke-width="2"></circle><circle cx="660.3848330503679" cy="386.6666666666667" r="6" fill="#9b1ae8" stroke="#fff" stroke-width="2"></circle><circle cx="661.0073571024334" cy="131.85185185185185" r="6" fill="#e8731a" stroke="#fff" stroke-width="2"></circle><circle cx="661.6298811544991" cy="307.03703703703707" r="6" fill="#547b48" stroke="#fff" stroke-width="2"></circle><circle cx="661.6298811544991" cy="386.6666666666667" r="6" fill="#9b1ae8" stroke="#fff" stroke-width="2"></circle><circle cx="661.0073571024334" cy="131.85185185185185" r="6" fill="#e8731a" stroke="#fff" stroke-width="2"></circle><circle cx="661.0073571024334" cy="115.92592592592592" r="6" fill="#e8731a" stroke="#fff" stroke-width="2"></circle><circle cx="662.2524052065648" cy="354.8148148148148" r="6" fill="#e81a1a" stroke="#fff" stroke-width="2"></circle><circle cx="662.5636672325977" cy="227.4074074074074" r="6" fill="#e8731a" stroke="#fff" stroke-width="2"></circle><circle cx="662.5636672325977" cy="147.77777777777777" r="6" fill="#1ae89b" stroke="#fff" stroke-width="2"></circle><circle cx="663.4974533106961" cy="418.51851851851853" r="6" fill="#e81a1a" stroke="#fff" stroke-width="2"></circle><circle cx="667.5438596491227" cy="227.4074074074074" r="6" fill="#e8731a" stroke="#fff" stroke-width="2"></circle><circle cx="667.23259762309" cy="418.51851851851853" r="6" fill="#e81a1a" stroke="#fff" stroke-width="2"></circle><circle cx="667.23259762309" cy="386.6666666666667" r="6" fill="#9b1ae8" stroke="#fff" stroke-width="2"></circle><circle cx="670.3452178834182" cy="386.6666666666667" r="6" fill="#9b1ae8" stroke="#fff" stroke-width="2"></circle><circle cx="670.3452178834182" cy="227.4074074074074" r="6" fill="#e8731a" stroke="#fff" stroke-width="2"></circle><circle cx="670.3452178834182" cy="291.1111111111111" r="6" fill="#e81a1a" stroke="#fff" stroke-width="2"></circle><circle cx="672.2127900396151" cy="243.33333333333334" r="6" fill="#e81a1a" stroke="#fff" stroke-width="2"></circle><circle cx="674.0803621958121" cy="227.4074074074074" r="6" fill="#e8731a" stroke="#fff" stroke-width="2"></circle><circle cx="674.0803621958121" cy="147.77777777777777" r="6" fill="#1ae89b" stroke="#fff" stroke-width="2"></circle><circle cx="674.7028862478777" cy="147.77777777777777" r="6" fill="#1ae89b" stroke="#fff" stroke-width="2"></circle><circle cx="674.7028862478777" cy="131.85185185185185" r="6" fill="#e8731a" stroke="#fff" stroke-width="2"></circle><circle cx="674.7028862478777" cy="115.92592592592592" r="6" fill="#e8731a" stroke="#fff" stroke-width="2"></circle><circle cx="674.7028862478777" cy="147.77777777777777" r="6" fill="#1ae89b" stroke="#fff" stroke-width="2"></circle><circle cx="682.1731748726655" cy="434.44444444444446" r="6" fill="#1a73e8" stroke="#fff" stroke-width="2"></circle><circle cx="684.0407470288625" cy="147.77777777777777" r="6" fill="#1ae89b" stroke="#fff" stroke-width="2"></circle><circle cx="685.9083191850593" cy="147.77777777777777" r="6" fill="#1ae89b" stroke="#fff" stroke-width="2"></circle><circle cx="687.7758913412563" cy="147.77777777777777" r="6" fill="#1ae89b" stroke="#fff" stroke-width="2"></circle><circle cx="689.6434634974532" cy="450.3703703703704" r="6" fill="#e8731a" stroke="#fff" stroke-width="2"></circle><circle cx="691.5110356536502" cy="147.77777777777777" r="6" fill="#1ae89b" stroke="#fff" stroke-width="2"></circle><circle cx="695.2461799660441" cy="147.77777777777777" r="6" fill="#1ae89b" stroke="#fff" stroke-width="2"></circle><circle cx="698.3588002263724" cy="147.77777777777777" r="6" fill="#1ae89b" stroke="#fff" stroke-width="2"></circle><circle cx="674.7028862478777" cy="131.85185185185185" r="6" fill="#e8731a" stroke="#fff" stroke-width="2"></circle><circle cx="674.7028862478777" cy="115.92592592592592" r="6" fill="#e8731a" stroke="#fff" stroke-width="2"></circle><circle cx="730.7300509337861" cy="418.51851851851853" r="6" fill="#e81a1a" stroke="#fff" stroke-width="2"></circle><circle cx="740.0679117147707" cy="418.51851851851853" r="6" fill="#e81a1a" stroke="#fff" stroke-width="2"></circle><circle cx="779.2869269949067" cy="466.2962962962963" r="6" fill="#e81a1a" stroke="#fff" stroke-width="2"></circle><circle cx="764.3463497453309" cy="115.92592592592592" r="6" fill="#e8731a" stroke="#fff" stroke-width="2"></circle><circle cx="846.5195246179967" cy="466.2962962962963" r="6" fill="#e81a1a" stroke="#fff" stroke-width="2"></circle><circle cx="853.3672891907187" cy="100" r="6" fill="#1a73e8" stroke="#fff" stroke-width="2"></circle><circle cx="856.7911714770798" cy="291.1111111111111" r="6" fill="#e81a1a" stroke="#fff" stroke-width="2"></circle><circle cx="855.8573853989814" cy="482.22222222222223" r="6" fill="#e81a1a" stroke="#fff" stroke-width="2"></circle><circle cx="856.1686474250142" cy="307.03703703703707" r="6" fill="#547b48" stroke="#fff" stroke-width="2"></circle><circle cx="858.3474816072438" cy="498.14814814814815" r="6" fill="#9b1ae8" stroke="#fff" stroke-width="2"></circle><circle cx="858.3474816072438" cy="131.85185185185185" r="6" fill="#e8731a" stroke="#fff" stroke-width="2"></circle><circle cx="861.4601018675722" cy="227.4074074074074" r="6" fill="#e8731a" stroke="#fff" stroke-width="2"></circle><circle cx="858.3474816072438" cy="386.6666666666667" r="6" fill="#9b1ae8" stroke="#fff" stroke-width="2"></circle><circle cx="861.771363893605" cy="514.0740740740741" r="6" fill="#e8731a" stroke="#fff" stroke-width="2"></circle><circle cx="864.2614601018676" cy="386.6666666666667" r="6" fill="#9b1ae8" stroke="#fff" stroke-width="2"></circle><circle cx="864.2614601018676" cy="418.51851851851853" r="6" fill="#e81a1a" stroke="#fff" stroke-width="2"></circle><circle cx="865.8177702320315" cy="418.51851851851853" r="6" fill="#e81a1a" stroke="#fff" stroke-width="2"></circle><circle cx="870.1754385964912" cy="482.22222222222223" r="6" fill="#e81a1a" stroke="#fff" stroke-width="2"></circle><circle cx="872.6655348047539" cy="514.0740740740741" r="6" fill="#e8731a" stroke="#fff" stroke-width="2"></circle><circle cx="872.6655348047539" cy="482.22222222222223" r="6" fill="#e81a1a" stroke="#fff" stroke-width="2"></circle><circle cx="874.5331069609508" cy="514.0740740740741" r="6" fill="#e8731a" stroke="#fff" stroke-width="2"></circle><circle cx="877.0232031692134" cy="131.85185185185185" r="6" fill="#e8731a" stroke="#fff" stroke-width="2"></circle><circle cx="877.0232031692134" cy="115.92592592592592" r="6" fill="#e8731a" stroke="#fff" stroke-width="2"></circle><circle cx="880.7583474816072" cy="386.6666666666667" r="6" fill="#9b1ae8" stroke="#fff" stroke-width="2"></circle><circle cx="1105.0537634408602" cy="100" r="6" fill="#1a73e8" stroke="#fff" stroke-width="2"></circle><circle cx="1107.357102433503" cy="354.8148148148148" r="6" fill="#e81a1a" stroke="#fff" stroke-width="2"></circle><circle cx="1108.6021505376345" cy="514.0740740740741" r="6" fill="#e8731a" stroke="#fff" stroke-width="2"></circle><circle cx="1109.2246745897" cy="338.8888888888889" r="6" fill="#e81a1a" stroke="#fff" stroke-width="2"></circle><circle cx="1111.092246745897" cy="370.74074074074076" r="6" fill="#1ae89b" stroke="#fff" stroke-width="2"></circle><circle cx="1111.4035087719299" cy="418.51851851851853" r="6" fill="#e81a1a" stroke="#fff" stroke-width="2"></circle><circle cx="1112.648556876061" cy="386.6666666666667" r="6" fill="#9b1ae8" stroke="#fff" stroke-width="2"></circle><circle cx="1150" cy="243.33333333333334" r="6" fill="#e81a1a" stroke="#fff" stroke-width="2"></circle><circle cx="1150" cy="291.1111111111111" r="6" fill="#e81a1a" stroke="#fff" stroke-width="2"></circle></svg>