<svg width="1200" height="600" xmlns="http://www.w3.org/2000/svg"><rect width="1200" height="600" fill="#f9f9f9"></rect><text x="600" y="30" text-anchor="middle" font-size="20px" font-weight="bold">Mestinon/Pyridostigminbromid Wirkungskurve</text><g transform="translate(0, 550)" fill="none" font-size="10" font-family="sans-serif" text-anchor="middle"><path class="domain" stroke="currentColor" d="M50.5,6V0.5H1150.5V6"></path><g class="tick" opacity="1" transform="translate(106.13881603596853,0)"><line stroke="currentColor" y2="6"></line><text fill="currentColor" y="9" dy="0.71em" transform="rotate(-45)" text-anchor="end">19.06.2025</text></g><g class="tick" opacity="1" transform="translate(224.83495691270141,0)"><line stroke="currentColor" y2="6"></line><text fill="currentColor" y="9" dy="0.71em" transform="rotate(-45)" text-anchor="end">20.06.2025</text></g><g class="tick" opacity="1" transform="translate(343.5310977894342,0)"><line stroke="currentColor" y2="6"></line><text fill="currentColor" y="9" dy="0.71em" transform="rotate(-45)" text-anchor="end">21.06.2025</text></g><g class="tick" opacity="1" transform="translate(462.2272386661671,0)"><line stroke="currentColor" y2="6"></line><text fill="currentColor" y="9" dy="0.71em" transform="rotate(-45)" text-anchor="end">22.06.2025</text></g><g class="tick" opacity="1" transform="translate(580.9233795429,0)"><line stroke="currentColor" y2="6"></line><text fill="currentColor" y="9" dy="0.71em" transform="rotate(-45)" text-anchor="end">23.06.2025</text></g><g class="tick" opacity="1" transform="translate(699.6195204196329,0)"><line stroke="currentColor" y2="6"></line><text fill="currentColor" y="9" dy="0.71em" transform="rotate(-45)" text-anchor="end">24.06.2025</text></g><g class="tick" opacity="1" transform="translate(818.3156612963658,0)"><line stroke="currentColor" y2="6"></line><text fill="currentColor" y="9" dy="0.71em" transform="rotate(-45)" text-anchor="end">25.06.2025</text></g><g class="tick" opacity="1" transform="translate(937.0118021730985,0)"><line stroke="currentColor" y2="6"></line><text fill="currentColor" y="9" dy="0.71em" transform="rotate(-45)" text-anchor="end">26.06.2025</text></g><g class="tick" opacity="1" transform="translate(1055.7079430498313,0)"><line stroke="currentColor" y2="6"></line><text fill="currentColor" y="9" dy="0.71em" transform="rotate(-45)" text-anchor="end">27.06.2025</text></g></g><circle cx="100" cy="70" r="6" fill="#1a73e8"></circle><text x="120" y="75" font-size="14px">Mestinon Einnahme</text><circle cx="100" cy="95" r="6" fill="#e8731a"></circle><text x="120" y="100" font-size="14px">Doppeltsehen</text><circle cx="100" cy="120" r="6" fill="#e8731a"></circle><text x="120" y="125" font-size="14px">Doppeltsehen</text><circle cx="100" cy="145" r="6" fill="#1ae89b"></circle><text x="120" y="150" font-size="14px">Zeilenmix Laptop</text><circle cx="100" cy="170" r="6" fill="#9b1ae8"></circle><text x="120" y="175" font-size="14px">Lid linkes Auge</text><circle cx="100" cy="195" r="6" fill="#e8d81a"></circle><text x="120" y="200" font-size="14px">Muskelzucken</text><circle cx="100" cy="220" r="6" fill="#547b48"></circle><text x="120" y="225" font-size="14px">Darm</text><circle cx="100" cy="245" r="6" fill="#1a73e8"></circle><text x="120" y="250" font-size="14px">Sonstiges</text><circle cx="100" cy="270" r="6" fill="#e8731a"></circle><text x="120" y="275" font-size="14px">Doppeltsehen</text><circle cx="100" cy="295" r="6" fill="#e81a1a"></circle><text x="120" y="300" font-size="14px">Nebenwirkung</text><circle cx="100" cy="320" r="6" fill="#e81a1a"></circle><text x="120" y="325" font-size="14px">Nebenwirkung</text><circle cx="100" cy="345" r="6" fill="#9b1ae8"></circle><text x="120" y="350" font-size="14px">Hausarztnotdienst</text><circle cx="100" cy="370" r="6" fill="#e81a1a"></circle><text x="120" y="375" font-size="14px">Nebenwirkung</text><circle cx="100" cy="395" r="6" fill="#547b48"></circle><text x="120" y="400" font-size="14px">Aufstoßen</text><circle cx="100" cy="420" r="6" fill="#1a73e8"></circle><text x="120" y="425" font-size="14px">Blähungen</text><circle cx="100" cy="445" r="6" fill="#e81a1a"></circle><text x="120" y="450" font-size="14px">Nebenwirkung</text><circle cx="100" cy="470" r="6" fill="#e81a1a"></circle><text x="120" y="475" font-size="14px">Nebenwirkung</text><circle cx="100" cy="495" r="6" fill="#1ae89b"></circle><text x="120" y="500" font-size="14px">Speichelfluss</text><circle cx="100" cy="520" r="6" fill="#9b1ae8"></circle><text x="120" y="525" font-size="14px">Zeilemix Laptop</text><circle cx="100" cy="545" r="6" fill="#e8d81a"></circle><text x="120" y="550" font-size="14px">Nase läuft</text><circle cx="100" cy="570" r="6" fill="#e81a1a"></circle><text x="120" y="575" font-size="14px">Nebenwirkung</text><circle cx="100" cy="595" r="6" fill="#1a73e8"></circle><text x="120" y="600" font-size="14px">Doppensehen</text><circle cx="100" cy="620" r="6" fill="#e8731a"></circle><text x="120" y="625" font-size="14px">Vorlesen</text><circle cx="100" cy="645" r="6" fill="#e81a1a"></circle><text x="120" y="650" font-size="14px">Stuhlgang</text><circle cx="100" cy="670" r="6" fill="#e81a1a"></circle><text x="120" y="675" font-size="14px">Nebenwirkung</text><circle cx="100" cy="695" r="6" fill="#9b1ae8"></circle><text x="120" y="700" font-size="14px">Zeilenmix</text><circle cx="100" cy="720" r="6" fill="#e8731a"></circle><text x="120" y="725" font-size="14px">Doppeltsehen</text><circle cx="50" cy="100" r="6" fill="#1a73e8" stroke="#fff" stroke-width="2"></circle><circle cx="53.70925440239791" cy="115.92592592592592" r="6" fill="#e8731a" stroke="#fff" stroke-width="2"></circle><circle cx="53.70925440239791" cy="131.85185185185185" r="6" fill="#e8731a" stroke="#fff" stroke-width="2"></circle><circle cx="54.12139378044211" cy="147.77777777777777" r="6" fill="#1ae89b" stroke="#fff" stroke-width="2"></circle><circle cx="56.59423004870738" cy="147.77777777777777" r="6" fill="#1ae89b" stroke="#fff" stroke-width="2"></circle><circle cx="57.0063694267516" cy="163.7037037037037" r="6" fill="#9b1ae8" stroke="#fff" stroke-width="2"></circle><circle cx="57.4185088047958" cy="163.7037037037037" r="6" fill="#9b1ae8" stroke="#fff" stroke-width="2"></circle><circle cx="66.89771449981266" cy="115.92592592592592" r="6" fill="#e8731a" stroke="#fff" stroke-width="2"></circle><circle cx="66.89771449981266" cy="131.85185185185185" r="6" fill="#e8731a" stroke="#fff" stroke-width="2"></circle><circle cx="67.30985387785688" cy="100" r="6" fill="#1a73e8" stroke="#fff" stroke-width="2"></circle><circle cx="69.37055076807793" cy="179.62962962962962" r="6" fill="#e8d81a" stroke="#fff" stroke-width="2"></circle><circle cx="70.60696890221057" cy="195.55555555555554" r="6" fill="#547b48" stroke="#fff" stroke-width="2"></circle><circle cx="69.37055076807793" cy="147.77777777777777" r="6" fill="#1ae89b" stroke="#fff" stroke-width="2"></circle><circle cx="73.07980517047584" cy="211.48148148148147" r="6" fill="#1a73e8" stroke="#fff" stroke-width="2"></circle><circle cx="77.61333832896216" cy="147.77777777777777" r="6" fill="#1ae89b" stroke="#fff" stroke-width="2"></circle><circle cx="81.73473210940426" cy="147.77777777777777" r="6" fill="#1ae89b" stroke="#fff" stroke-width="2"></circle><circle cx="82.5590108654927" cy="227.4074074074074" r="6" fill="#e8731a" stroke="#fff" stroke-width="2"></circle><circle cx="84.20756837766953" cy="227.4074074074074" r="6" fill="#e8731a" stroke="#fff" stroke-width="2"></circle><circle cx="85.85612588984638" cy="227.4074074074074" r="6" fill="#e8731a" stroke="#fff" stroke-width="2"></circle><circle cx="87.09254402397902" cy="227.4074074074074" r="6" fill="#e8731a" stroke="#fff" stroke-width="2"></circle><circle cx="91.62607718246534" cy="227.4074074074074" r="6" fill="#e8731a" stroke="#fff" stroke-width="2"></circle><circle cx="93.27463469464217" cy="243.33333333333334" r="6" fill="#e81a1a" stroke="#fff" stroke-width="2"></circle><circle cx="100.693143499438" cy="259.25925925925924" r="6" fill="#e81a1a" stroke="#fff" stroke-width="2"></circle><circle cx="118.00299737729488" cy="259.25925925925924" r="6" fill="#e81a1a" stroke="#fff" stroke-width="2"></circle><circle cx="127.89434245035594" cy="259.25925925925924" r="6" fill="#e81a1a" stroke="#fff" stroke-width="2"></circle><circle cx="128.05919820157362" cy="275.1851851851852" r="6" fill="#9b1ae8" stroke="#fff" stroke-width="2"></circle><circle cx="132.84001498688647" cy="227.4074074074074" r="6" fill="#e8731a" stroke="#fff" stroke-width="2"></circle><circle cx="137.785687523417" cy="227.4074074074074" r="6" fill="#e8731a" stroke="#fff" stroke-width="2"></circle><circle cx="140.25852379168228" cy="227.4074074074074" r="6" fill="#e8731a" stroke="#fff" stroke-width="2"></circle><circle cx="145.20419632821282" cy="227.4074074074074" r="6" fill="#e8731a" stroke="#fff" stroke-width="2"></circle><circle cx="160.04121393780443" cy="227.4074074074074" r="6" fill="#e8731a" stroke="#fff" stroke-width="2"></circle><circle cx="164.98688647433494" cy="227.4074074074074" r="6" fill="#e8731a" stroke="#fff" stroke-width="2"></circle><circle cx="258.5425252903709" cy="100" r="6" fill="#1a73e8" stroke="#fff" stroke-width="2"></circle><circle cx="258.95466466841515" cy="227.4074074074074" r="6" fill="#e8731a" stroke="#fff" stroke-width="2"></circle><circle cx="145.20419632821282" cy="211.48148148148147" r="6" fill="#1a73e8" stroke="#fff" stroke-width="2"></circle><circle cx="264.7246159610341" cy="211.48148148148147" r="6" fill="#1a73e8" stroke="#fff" stroke-width="2"></circle><circle cx="265.5488947171225" cy="227.4074074074074" r="6" fill="#e8731a" stroke="#fff" stroke-width="2"></circle><circle cx="265.5488947171225" cy="227.4074074074074" r="6" fill="#e8731a" stroke="#fff" stroke-width="2"></circle><circle cx="266.7853128512552" cy="291.1111111111111" r="6" fill="#e81a1a" stroke="#fff" stroke-width="2"></circle><circle cx="266.7853128512552" cy="227.4074074074074" r="6" fill="#e8731a" stroke="#fff" stroke-width="2"></circle><circle cx="268.8460097414762" cy="227.4074074074074" r="6" fill="#e8731a" stroke="#fff" stroke-width="2"></circle><circle cx="269.2581491195204" cy="291.1111111111111" r="6" fill="#e81a1a" stroke="#fff" stroke-width="2"></circle><circle cx="269.2581491195204" cy="307.03703703703707" r="6" fill="#547b48" stroke="#fff" stroke-width="2"></circle><circle cx="272.9674035219183" cy="179.62962962962962" r="6" fill="#e8d81a" stroke="#fff" stroke-width="2"></circle><circle cx="273.79168227800676" cy="291.1111111111111" r="6" fill="#e81a1a" stroke="#fff" stroke-width="2"></circle><circle cx="281.21019108280257" cy="227.4074074074074" r="6" fill="#e8731a" stroke="#fff" stroke-width="2"></circle><circle cx="286.1558636193331" cy="227.4074074074074" r="6" fill="#e8731a" stroke="#fff" stroke-width="2"></circle><circle cx="291.92581491195205" cy="259.25925925925924" r="6" fill="#e81a1a" stroke="#fff" stroke-width="2"></circle><circle cx="295.2229299363057" cy="322.96296296296293" r="6" fill="#1a73e8" stroke="#fff" stroke-width="2"></circle><circle cx="300.9928812289247" cy="195.55555555555554" r="6" fill="#547b48" stroke="#fff" stroke-width="2"></circle><circle cx="303.4657174971899" cy="227.4074074074074" r="6" fill="#e8731a" stroke="#fff" stroke-width="2"></circle><circle cx="310.8842263019858" cy="227.4074074074074" r="6" fill="#e8731a" stroke="#fff" stroke-width="2"></circle><circle cx="317.0663169726489" cy="227.4074074074074" r="6" fill="#e8731a" stroke="#fff" stroke-width="2"></circle><circle cx="256.4818284001499" cy="227.4074074074074" r="6" fill="#e8731a" stroke="#fff" stroke-width="2"></circle><circle cx="499.6440614462345" cy="100" r="6" fill="#1a73e8" stroke="#fff" stroke-width="2"></circle><circle cx="502.1168977144998" cy="338.8888888888889" r="6" fill="#e81a1a" stroke="#fff" stroke-width="2"></circle><circle cx="503.35331584863246" cy="307.03703703703707" r="6" fill="#547b48" stroke="#fff" stroke-width="2"></circle><circle cx="504.58973398276504" cy="227.4074074074074" r="6" fill="#e8731a" stroke="#fff" stroke-width="2"></circle><circle cx="505.41401273885356" cy="354.8148148148148" r="6" fill="#e81a1a" stroke="#fff" stroke-width="2"></circle><circle cx="510.7718246534282" cy="131.85185185185185" r="6" fill="#e8731a" stroke="#fff" stroke-width="2"></circle><circle cx="510.7718246534282" cy="115.92592592592592" r="6" fill="#e8731a" stroke="#fff" stroke-width="2"></circle><circle cx="511.18396403147244" cy="131.85185185185185" r="6" fill="#e8731a" stroke="#fff" stroke-width="2"></circle><circle cx="511.18396403147244" cy="115.92592592592592" r="6" fill="#e8731a" stroke="#fff" stroke-width="2"></circle><circle cx="511.5961034095167" cy="307.03703703703707" r="6" fill="#547b48" stroke="#fff" stroke-width="2"></circle><circle cx="512.8325215436494" cy="115.92592592592592" r="6" fill="#e8731a" stroke="#fff" stroke-width="2"></circle><circle cx="513.2446609216935" cy="131.85185185185185" r="6" fill="#e8731a" stroke="#fff" stroke-width="2"></circle><circle cx="513.6568002997377" cy="179.62962962962962" r="6" fill="#e8d81a" stroke="#fff" stroke-width="2"></circle><circle cx="514.4810790558262" cy="370.74074074074076" r="6" fill="#1ae89b" stroke="#fff" stroke-width="2"></circle><circle cx="516.129636568003" cy="147.77777777777777" r="6" fill="#1ae89b" stroke="#fff" stroke-width="2"></circle><circle cx="516.9539153240914" cy="147.77777777777777" r="6" fill="#1ae89b" stroke="#fff" stroke-width="2"></circle><circle cx="517.3660547021357" cy="259.25925925925924" r="6" fill="#e81a1a" stroke="#fff" stroke-width="2"></circle><circle cx="518.6024728362682" cy="131.85185185185185" r="6" fill="#e8731a" stroke="#fff" stroke-width="2"></circle><circle cx="518.6024728362682" cy="115.92592592592592" r="6" fill="#e8731a" stroke="#fff" stroke-width="2"></circle><circle cx="538.3851629823904" cy="115.92592592592592" r="6" fill="#e8731a" stroke="#fff" stroke-width="2"></circle><circle cx="542.0944173847884" cy="291.1111111111111" r="6" fill="#e81a1a" stroke="#fff" stroke-width="2"></circle><circle cx="550.7493443237167" cy="147.77777777777777" r="6" fill="#1ae89b" stroke="#fff" stroke-width="2"></circle><circle cx="538.3851629823904" cy="131.85185185185185" r="6" fill="#e8731a" stroke="#fff" stroke-width="2"></circle><circle cx="619.9887598351443" cy="131.85185185185185" r="6" fill="#e8731a" stroke="#fff" stroke-width="2"></circle><circle cx="622.0494567253653" cy="100" r="6" fill="#1a73e8" stroke="#fff" stroke-width="2"></circle><circle cx="622.4615961034095" cy="115.92592592592592" r="6" fill="#e8731a" stroke="#fff" stroke-width="2"></circle><circle cx="622.4615961034095" cy="386.6666666666667" r="6" fill="#9b1ae8" stroke="#fff" stroke-width="2"></circle><circle cx="629.8801049082053" cy="338.8888888888889" r="6" fill="#e81a1a" stroke="#fff" stroke-width="2"></circle><circle cx="630.2922442862496" cy="259.25925925925924" r="6" fill="#e81a1a" stroke="#fff" stroke-width="2"></circle><circle cx="631.5286624203821" cy="402.5925925925926" r="6" fill="#e8d81a" stroke="#fff" stroke-width="2"></circle><circle cx="631.9408017984264" cy="131.85185185185185" r="6" fill="#e8731a" stroke="#fff" stroke-width="2"></circle><circle cx="631.9408017984264" cy="115.92592592592592" r="6" fill="#e8731a" stroke="#fff" stroke-width="2"></circle><circle cx="631.9408017984264" cy="147.77777777777777" r="6" fill="#1ae89b" stroke="#fff" stroke-width="2"></circle><circle cx="632.1880854252529" cy="147.77777777777777" r="6" fill="#1ae89b" stroke="#fff" stroke-width="2"></circle><circle cx="635.6500562008242" cy="227.4074074074074" r="6" fill="#e8731a" stroke="#fff" stroke-width="2"></circle><circle cx="637.298613713001" cy="259.25925925925924" r="6" fill="#e81a1a" stroke="#fff" stroke-width="2"></circle><circle cx="638.1228924690896" cy="147.77777777777777" r="6" fill="#1ae89b" stroke="#fff" stroke-width="2"></circle><circle cx="637.298613713001" cy="227.4074074074074" r="6" fill="#e8731a" stroke="#fff" stroke-width="2"></circle><circle cx="647.1899587860622" cy="147.77777777777777" r="6" fill="#1ae89b" stroke="#fff" stroke-width="2"></circle><circle cx="648.838516298239" cy="227.4074074074074" r="6" fill="#e8731a" stroke="#fff" stroke-width="2"></circle><circle cx="648.9209441738478" cy="147.77777777777777" r="6" fill="#1ae89b" stroke="#fff" stroke-width="2"></circle><circle cx="649.0033720494567" cy="147.77777777777777" r="6" fill="#1ae89b" stroke="#fff" stroke-width="2"></circle><circle cx="652.5477707006369" cy="418.51851851851853" r="6" fill="#e81a1a" stroke="#fff" stroke-width="2"></circle><circle cx="652.9599100786811" cy="227.4074074074074" r="6" fill="#e8731a" stroke="#fff" stroke-width="2"></circle><circle cx="652.9599100786811" cy="147.77777777777777" r="6" fill="#1ae89b" stroke="#fff" stroke-width="2"></circle><circle cx="658.7298613713001" cy="147.77777777777777" r="6" fill="#1ae89b" stroke="#fff" stroke-width="2"></circle><circle cx="662.8512551517422" cy="322.96296296296293" r="6" fill="#1a73e8" stroke="#fff" stroke-width="2"></circle><circle cx="662.8512551517422" cy="147.77777777777777" r="6" fill="#1ae89b" stroke="#fff" stroke-width="2"></circle><circle cx="662.8512551517422" cy="147.77777777777777" r="6" fill="#1ae89b" stroke="#fff" stroke-width="2"></circle><circle cx="662.8512551517422" cy="147.77777777777777" r="6" fill="#1ae89b" stroke="#fff" stroke-width="2"></circle><circle cx="666.9726489321843" cy="147.77777777777777" r="6" fill="#1ae89b" stroke="#fff" stroke-width="2"></circle><circle cx="671.9183214687149" cy="147.77777777777777" r="6" fill="#1ae89b" stroke="#fff" stroke-width="2"></circle><circle cx="850.7868115399025" cy="147.77777777777777" r="6" fill="#1ae89b" stroke="#fff" stroke-width="2"></circle><circle cx="856.5567628325215" cy="259.25925925925924" r="6" fill="#e81a1a" stroke="#fff" stroke-width="2"></circle><circle cx="856.5567628325215" cy="354.8148148148148" r="6" fill="#e81a1a" stroke="#fff" stroke-width="2"></circle><circle cx="856.5567628325215" cy="227.4074074074074" r="6" fill="#e8731a" stroke="#fff" stroke-width="2"></circle><circle cx="857.7931809666542" cy="115.92592592592592" r="6" fill="#e8731a" stroke="#fff" stroke-width="2"></circle><circle cx="857.7931809666542" cy="131.85185185185185" r="6" fill="#e8731a" stroke="#fff" stroke-width="2"></circle><circle cx="858.6174597227425" cy="243.33333333333334" r="6" fill="#e81a1a" stroke="#fff" stroke-width="2"></circle><circle cx="858.2053203446983" cy="386.6666666666667" r="6" fill="#9b1ae8" stroke="#fff" stroke-width="2"></circle><circle cx="859.0295991007868" cy="131.85185185185185" r="6" fill="#e8731a" stroke="#fff" stroke-width="2"></circle><circle cx="859.8538778568753" cy="307.03703703703707" r="6" fill="#547b48" stroke="#fff" stroke-width="2"></circle><circle cx="859.8538778568753" cy="386.6666666666667" r="6" fill="#9b1ae8" stroke="#fff" stroke-width="2"></circle><circle cx="859.0295991007868" cy="131.85185185185185" r="6" fill="#e8731a" stroke="#fff" stroke-width="2"></circle><circle cx="859.0295991007868" cy="115.92592592592592" r="6" fill="#e8731a" stroke="#fff" stroke-width="2"></circle><circle cx="860.6781566129637" cy="354.8148148148148" r="6" fill="#e81a1a" stroke="#fff" stroke-width="2"></circle><circle cx="861.0902959910079" cy="227.4074074074074" r="6" fill="#e8731a" stroke="#fff" stroke-width="2"></circle><circle cx="861.0902959910079" cy="147.77777777777777" r="6" fill="#1ae89b" stroke="#fff" stroke-width="2"></circle><circle cx="862.3267141251405" cy="418.51851851851853" r="6" fill="#e81a1a" stroke="#fff" stroke-width="2"></circle><circle cx="867.6845260397153" cy="227.4074074074074" r="6" fill="#e8731a" stroke="#fff" stroke-width="2"></circle><circle cx="867.272386661671" cy="418.51851851851853" r="6" fill="#e81a1a" stroke="#fff" stroke-width="2"></circle><circle cx="867.272386661671" cy="386.6666666666667" r="6" fill="#9b1ae8" stroke="#fff" stroke-width="2"></circle><circle cx="871.3937804421131" cy="386.6666666666667" r="6" fill="#9b1ae8" stroke="#fff" stroke-width="2"></circle><circle cx="871.3937804421131" cy="227.4074074074074" r="6" fill="#e8731a" stroke="#fff" stroke-width="2"></circle><circle cx="871.3937804421131" cy="291.1111111111111" r="6" fill="#e81a1a" stroke="#fff" stroke-width="2"></circle><circle cx="873.8666167103785" cy="243.33333333333334" r="6" fill="#e81a1a" stroke="#fff" stroke-width="2"></circle><circle cx="876.3394529786437" cy="227.4074074074074" r="6" fill="#e8731a" stroke="#fff" stroke-width="2"></circle><circle cx="876.3394529786437" cy="147.77777777777777" r="6" fill="#1ae89b" stroke="#fff" stroke-width="2"></circle><circle cx="877.1637317347321" cy="147.77777777777777" r="6" fill="#1ae89b" stroke="#fff" stroke-width="2"></circle><circle cx="877.1637317347321" cy="131.85185185185185" r="6" fill="#e8731a" stroke="#fff" stroke-width="2"></circle><circle cx="877.1637317347321" cy="115.92592592592592" r="6" fill="#e8731a" stroke="#fff" stroke-width="2"></circle><circle cx="877.1637317347321" cy="147.77777777777777" r="6" fill="#1ae89b" stroke="#fff" stroke-width="2"></circle><circle cx="887.0550768077932" cy="434.44444444444446" r="6" fill="#1a73e8" stroke="#fff" stroke-width="2"></circle><circle cx="889.5279130760586" cy="147.77777777777777" r="6" fill="#1ae89b" stroke="#fff" stroke-width="2"></circle><circle cx="892.0007493443236" cy="147.77777777777777" r="6" fill="#1ae89b" stroke="#fff" stroke-width="2"></circle><circle cx="894.473585612589" cy="147.77777777777777" r="6" fill="#1ae89b" stroke="#fff" stroke-width="2"></circle><circle cx="896.9464218808542" cy="450.3703703703704" r="6" fill="#e8731a" stroke="#fff" stroke-width="2"></circle><circle cx="899.4192581491195" cy="147.77777777777777" r="6" fill="#1ae89b" stroke="#fff" stroke-width="2"></circle><circle cx="904.36493068565" cy="147.77777777777777" r="6" fill="#1ae89b" stroke="#fff" stroke-width="2"></circle><circle cx="908.4863244660921" cy="147.77777777777777" r="6" fill="#1ae89b" stroke="#fff" stroke-width="2"></circle><circle cx="877.1637317347321" cy="131.85185185185185" r="6" fill="#e8731a" stroke="#fff" stroke-width="2"></circle><circle cx="877.1637317347321" cy="115.92592592592592" r="6" fill="#e8731a" stroke="#fff" stroke-width="2"></circle><circle cx="951.34881978269" cy="418.51851851851853" r="6" fill="#e81a1a" stroke="#fff" stroke-width="2"></circle><circle cx="963.7130011240164" cy="418.51851851851853" r="6" fill="#e81a1a" stroke="#fff" stroke-width="2"></circle><circle cx="1015.6425627575871" cy="466.2962962962963" r="6" fill="#e81a1a" stroke="#fff" stroke-width="2"></circle><circle cx="995.859872611465" cy="115.92592592592592" r="6" fill="#e8731a" stroke="#fff" stroke-width="2"></circle><circle cx="1104.6646684151367" cy="466.2962962962963" r="6" fill="#e81a1a" stroke="#fff" stroke-width="2"></circle><circle cx="1113.7317347321095" cy="100" r="6" fill="#1a73e8" stroke="#fff" stroke-width="2"></circle><circle cx="1118.2652678905956" cy="291.1111111111111" r="6" fill="#e81a1a" stroke="#fff" stroke-width="2"></circle><circle cx="1117.0288497564632" cy="482.22222222222223" r="6" fill="#e81a1a" stroke="#fff" stroke-width="2"></circle><circle cx="1117.4409891345074" cy="307.03703703703707" r="6" fill="#547b48" stroke="#fff" stroke-width="2"></circle><circle cx="1120.3259647808165" cy="498.14814814814815" r="6" fill="#9b1ae8" stroke="#fff" stroke-width="2"></circle><circle cx="1120.3259647808165" cy="131.85185185185185" r="6" fill="#e8731a" stroke="#fff" stroke-width="2"></circle><circle cx="1124.4473585612589" cy="227.4074074074074" r="6" fill="#e8731a" stroke="#fff" stroke-width="2"></circle><circle cx="1120.3259647808165" cy="386.6666666666667" r="6" fill="#9b1ae8" stroke="#fff" stroke-width="2"></circle><circle cx="1124.859497939303" cy="514.0740740740741" r="6" fill="#e8731a" stroke="#fff" stroke-width="2"></circle><circle cx="1128.156612963657" cy="386.6666666666667" r="6" fill="#9b1ae8" stroke="#fff" stroke-width="2"></circle><circle cx="1128.156612963657" cy="418.51851851851853" r="6" fill="#e81a1a" stroke="#fff" stroke-width="2"></circle><circle cx="1130.217309853878" cy="418.51851851851853" r="6" fill="#e81a1a" stroke="#fff" stroke-width="2"></circle><circle cx="1135.9872611464968" cy="482.22222222222223" r="6" fill="#e81a1a" stroke="#fff" stroke-width="2"></circle><circle cx="1139.2843761708507" cy="514.0740740740741" r="6" fill="#e8731a" stroke="#fff" stroke-width="2"></circle><circle cx="1139.2843761708507" cy="482.22222222222223" r="6" fill="#e81a1a" stroke="#fff" stroke-width="2"></circle><circle cx="1141.7572124391158" cy="514.0740740740741" r="6" fill="#e8731a" stroke="#fff" stroke-width="2"></circle><circle cx="1145.0543274634695" cy="131.85185185185185" r="6" fill="#e8731a" stroke="#fff" stroke-width="2"></circle><circle cx="1145.0543274634695" cy="115.92592592592592" r="6" fill="#e8731a" stroke="#fff" stroke-width="2"></circle><circle cx="1150" cy="386.6666666666667" r="6" fill="#9b1ae8" stroke="#fff" stroke-width="2"></circle></svg>